<?xml version="1.0" encoding="utf-8"?>
<!-- Generator: Adobe Illustrator 23.0.1, SVG Export Plug-In . SVG Version: 6.00 Build 0)  -->
<svg version="1.1" id="Layer_1" xmlns="http://www.w3.org/2000/svg" xmlns:xlink="http://www.w3.org/1999/xlink" x="0px" y="0px"
	 viewBox="0 0 1650.32 841.89" style="enable-background:new 0 0 1650.32 841.89;" xml:space="preserve">
<style type="text/css">
	.st0{fill:#DA2229;}
	.st1{fill:#FFFFFF;}
	.st2{fill:#231F20;}
</style>
<g>
	<path class="st0" d="M420.26,368.86c-8.45-8.45-18.72-14.61-29.88-18.13c5.4-10.38,8.31-22,8.31-33.95
		c0-40.6-33.03-73.63-73.63-73.63c-11.95,0-23.57,2.91-33.95,8.31c-3.52-11.15-9.68-21.43-18.13-29.88
		c-28.71-28.71-75.42-28.71-104.13,0c-8.45,8.45-14.61,18.72-18.13,29.88c-10.38-5.4-22-8.31-33.95-8.31
		c-40.6,0-73.63,33.03-73.63,73.63c0,11.95,2.91,23.57,8.31,33.95c-11.16,3.52-21.43,9.68-29.88,18.13
		C7.66,382.77,0,401.26,0,420.93s7.66,38.16,21.57,52.06c8.45,8.45,18.72,14.61,29.88,18.13c-5.4,10.38-8.31,22-8.31,33.95
		c0,40.6,33.03,73.63,73.63,73.63c11.94,0,23.57-2.91,33.95-8.31c3.52,11.15,9.68,21.43,18.13,29.88
		c13.91,13.91,32.4,21.57,52.07,21.57s38.16-7.66,52.07-21.57c8.45-8.45,14.61-18.72,18.13-29.88c10.38,5.4,22,8.31,33.95,8.31
		c40.6,0,73.63-33.03,73.63-73.63c0-11.94-2.91-23.57-8.31-33.95c11.15-3.52,21.43-9.68,29.88-18.13l0,0
		c13.91-13.91,21.57-32.4,21.57-52.07S434.17,382.77,420.26,368.86z"/>
	<path class="st1" d="M408.9,462.71c23.08-23.08,23.08-60.5,0-83.57c-12.52-12.53-29.27-18.24-45.66-17.17
		c12.34-10.83,20.15-26.71,20.15-44.42c0-32.64-26.46-59.09-59.1-59.09c-17.71,0-33.59,7.8-44.42,20.14
		c1.07-16.39-4.64-33.13-17.17-45.66c-23.08-23.08-60.5-23.08-83.57,0c-12.52,12.52-18.24,29.27-17.17,45.65
		c-10.83-12.34-26.71-20.14-44.42-20.14c-32.64,0-59.1,26.46-59.1,59.09c0,17.71,7.8,33.59,20.14,44.42
		c-16.39-1.07-33.13,4.64-45.65,17.17c-23.08,23.08-23.08,60.49,0,83.57c12.52,12.52,29.27,18.24,45.66,17.17
		c-12.34,10.83-20.15,26.71-20.15,44.42c0,32.64,26.46,59.1,59.1,59.1c17.71,0,33.59-7.8,44.42-20.14
		c-1.07,16.38,4.64,33.13,17.17,45.65c23.08,23.08,60.5,23.08,83.57,0c12.52-12.52,18.24-29.27,17.17-45.65
		c10.83,12.34,26.71,20.14,44.42,20.14c32.64,0,59.1-26.46,59.1-59.1c0-17.71-7.8-33.59-20.15-44.42
		C379.63,480.95,396.38,475.24,408.9,462.71z M324.29,289.76c15.35,0,27.79,12.44,27.79,27.79s-12.44,27.79-27.79,27.79
		s-27.79-12.44-27.79-27.79S308.94,289.76,324.29,289.76z M317.74,453.43c2.17,3.28,4.69,6.4,7.58,9.29
		c0.92,0.92,1.87,1.79,2.83,2.63c-1.28-0.08-2.56-0.14-3.86-0.14c-4.09,0-8.08,0.42-11.93,1.21c-1.39-3.66-3.35-7.04-5.8-10.01
		C310.39,456.03,314.17,455.04,317.74,453.43z M291.24,432.78c-6.55-6.55-6.55-17.16,0-23.71c6.55-6.54,17.16-6.54,23.71,0
		c6.55,6.55,6.55,17.16,0,23.71S297.78,439.33,291.24,432.78z M325.32,379.14c-2.89,2.89-5.42,6-7.58,9.28
		c-3.57-1.61-7.35-2.6-11.18-2.98c2.44-2.97,4.41-6.35,5.8-10.01c3.85,0.79,7.84,1.21,11.93,1.21c1.3,0,2.59-0.06,3.86-0.14
		C327.19,377.35,326.24,378.22,325.32,379.14z M279.02,346.06c9.26,0,16.76,7.5,16.76,16.76s-7.51,16.76-16.76,16.76
		c-9.26,0-16.76-7.5-16.76-16.76S269.77,346.06,279.02,346.06z M198.29,475.56c-1.64-16.91-15.09-30.37-32.01-32
		c10.8-13.12,10.81-32.14,0-45.26c16.91-1.64,30.37-15.09,32-32c13.12,10.81,32.14,10.8,45.26,0c1.63,16.91,15.09,30.37,32,32.01
		c-10.8,13.12-10.8,32.14,0,45.26c-16.92,1.63-30.37,15.09-32.01,32C230.43,464.76,211.4,464.76,198.29,475.56z M232.77,514.95
		c-6.55,6.55-17.16,6.55-23.7,0c-6.55-6.55-6.55-17.16,0-23.71c6.55-6.54,17.16-6.54,23.7,0
		C239.31,497.8,239.31,508.41,232.77,514.95z M209.06,326.9c6.55-6.55,17.16-6.55,23.7,0c6.55,6.55,6.55,17.16,0,23.71
		c-6.55,6.54-17.16,6.54-23.7,0C202.52,344.06,202.52,333.45,209.06,326.9z M262.7,316.52c0.92-0.92,1.79-1.87,2.63-2.83
		c-0.08,1.28-0.14,2.56-0.14,3.86c0,4.09,0.42,8.08,1.21,11.93c-3.66,1.39-7.04,3.35-10.01,5.8c-0.37-3.83-1.37-7.61-2.98-11.18
		C256.7,321.93,259.81,319.41,262.7,316.52z M201.26,255.08c10.85-10.85,28.45-10.85,39.3,0s10.85,28.45,0,39.3
		c-10.85,10.85-28.45,10.85-39.3,0C190.41,283.53,190.41,265.93,201.26,255.08z M176.5,313.69c0.85,0.96,1.71,1.91,2.63,2.83
		c2.89,2.89,6.01,5.42,9.29,7.58c-1.61,3.57-2.6,7.35-2.98,11.18c-2.97-2.44-6.35-4.41-10.01-5.8c0.79-3.85,1.21-7.84,1.21-11.93
		C176.64,316.25,176.58,314.97,176.5,313.69z M162.81,346.06c9.26,0,16.76,7.5,16.76,16.76s-7.5,16.76-16.76,16.76
		s-16.76-7.51-16.76-16.76C146.05,353.56,153.55,346.06,162.81,346.06z M116.51,462.71c2.89-2.89,5.42-6,7.58-9.29
		c3.57,1.61,7.35,2.6,11.18,2.98c-2.44,2.97-4.41,6.35-5.8,10.01c-3.85-0.79-7.84-1.2-11.93-1.2c-1.3,0-2.59,0.06-3.87,0.14
		C114.64,464.5,115.59,463.63,116.51,462.71z M113.68,376.51c1.28,0.08,2.56,0.14,3.86,0.14c4.09,0,8.08-0.42,11.93-1.2
		c1.39,3.66,3.35,7.04,5.8,10.01c-3.83,0.37-7.61,1.37-11.18,2.98c-2.17-3.28-4.69-6.4-7.58-9.29
		C115.59,378.22,114.64,377.35,113.68,376.51z M126.89,432.78c-6.55-6.55-6.55-17.16,0-23.71s17.16-6.55,23.71,0s6.55,17.16,0,23.71
		S133.43,439.33,126.89,432.78z M117.54,289.76c15.35,0,27.79,12.44,27.79,27.79s-12.44,27.79-27.79,27.79s-27.79-12.44-27.79-27.79
		S102.19,289.76,117.54,289.76z M55.07,440.58c-10.85-10.85-10.85-28.45,0-39.3c10.85-10.85,28.45-10.85,39.3,0
		c10.85,10.85,10.85,28.45,0,39.3C83.52,451.43,65.92,451.43,55.07,440.58z M117.54,552.09c-15.35,0-27.79-12.44-27.79-27.79
		c0-15.35,12.44-27.79,27.79-27.79s27.79,12.44,27.79,27.79C145.33,539.65,132.89,552.09,117.54,552.09z M162.81,495.79
		c-9.26,0-16.76-7.5-16.76-16.76s7.51-16.76,16.76-16.76c9.26,0,16.76,7.51,16.76,16.76C179.57,488.29,172.07,495.79,162.81,495.79z
		 M179.13,525.34c-0.92,0.92-1.79,1.87-2.63,2.83c0.08-1.28,0.14-2.56,0.14-3.86c0-4.09-0.42-8.07-1.2-11.93
		c3.66-1.39,7.04-3.35,10.01-5.8c0.37,3.83,1.37,7.61,2.98,11.18C185.13,519.92,182.02,522.45,179.13,525.34z M240.57,586.77
		c-10.85,10.85-28.45,10.85-39.3,0c-10.85-10.85-10.85-28.45,0-39.3s28.45-10.85,39.3,0C251.42,558.33,251.42,575.92,240.57,586.77z
		 M265.34,528.17c-0.85-0.96-1.71-1.91-2.63-2.83c-2.89-2.89-6-5.42-9.29-7.58c1.61-3.57,2.61-7.35,2.98-11.18
		c2.97,2.44,6.35,4.41,10.01,5.8c-0.79,3.85-1.21,7.84-1.21,11.93C265.2,525.6,265.25,526.89,265.34,528.17z M279.02,495.79
		c-9.26,0-16.76-7.5-16.76-16.76s7.51-16.76,16.76-16.76s16.76,7.51,16.76,16.76C295.78,488.29,288.28,495.79,279.02,495.79z
		 M324.29,552.09c-15.35,0-27.79-12.44-27.79-27.79c0-15.35,12.44-27.79,27.79-27.79s27.79,12.44,27.79,27.79
		C352.08,539.65,339.64,552.09,324.29,552.09z M347.46,440.58c-10.85-10.85-10.85-28.45,0-39.3c10.85-10.85,28.45-10.85,39.3,0
		s10.85,28.45,0,39.3C375.91,451.43,358.31,451.43,347.46,440.58z"/>
	<g>
		<path class="st2" d="M615.78,403.26v-0.34c0-13.58-7.44-23.34-22.13-29.08c7.87-4.65,15.51-12.84,15.51-27.12v-0.34
			c0-7.95-2.77-14.85-8.29-20.55c-7.47-7.28-18.73-11.13-32.57-11.13h-43.97c-4.75,0-8.77,4.09-8.77,8.94V428.9
			c0,4.85,4.02,8.94,8.77,8.94h46.18C598.44,437.83,615.78,424.58,615.78,403.26z M533.11,331.05h34.01
			c15.13,0,24.16,6.43,24.16,17.21v0.34c0,11.94-9.41,19.07-25.18,19.07h-32.99V331.05z M597.91,402.4
			c0,11.94-10.11,19.08-27.05,19.08h-37.75v-37.64h35.37c10.99,0,29.43,2.37,29.43,18.22V402.4z"/>
		<path class="st2" d="M698.52,320.61c-1.95-4.76-5.51-7.28-10.31-7.28h-0.67c-4.83,0-8.24,2.36-10.45,7.2l-48.2,105.4
			c-0.71,1.43-1.06,2.9-1.06,4.49c0,4.55,3.71,8.26,8.26,8.26c3.82,0,6.89-2.16,8.41-5.85l11.82-26.4h62.41l11.81,26.04
			c1.73,3.95,4.86,6.21,8.6,6.21c4.74,0,8.6-3.86,8.6-8.6c0-1.23-0.35-2.66-1.05-4.29L698.52,320.61z M663.53,389.9l24.01-53.39
			l24.01,53.39L663.53,389.9L663.53,389.9z"/>
		<path class="st2" d="M812.27,367.71c-25.83-5.54-30.56-11.41-30.56-20.98v-0.34c0-10.03,9.52-17.03,23.14-17.03
			c10.94,0,20.03,3.07,29.48,9.96c1.54,1.1,3.13,1.59,5.16,1.59c4.74,0,8.6-3.86,8.6-8.6c0-3.91-2.62-6.3-3.78-7.18
			c-11.66-8.38-23.72-12.12-39.12-12.12c-23.87,0-41.19,14.54-41.19,34.58v0.34c0,22.7,16.63,30.97,41.6,36.4
			c24.68,5.21,29.19,10.98,29.19,20.48v0.34c0,10.63-10.01,18.05-24.33,18.05c-14.09,0-24.88-4.05-36.07-13.53
			c-1.34-1.29-3.44-2.09-5.52-2.09c-4.82,0-8.6,3.85-8.6,8.77c0,2.81,1.28,5.36,3.42,6.83c13.89,11.02,29.03,16.37,46.27,16.37
			c25.15,0,42.72-14.71,42.72-35.76v-0.34C852.67,384.57,840.59,373.88,812.27,367.71z"/>
		<path class="st2" d="M928.96,314.69h-44.48c-4.76,0-8.77,4.09-8.77,8.94v106.1c0,4.85,4.02,8.94,8.77,8.94
			c4.93,0,8.94-4.01,8.94-8.94v-38.08h30.91l32.79,42.6c2.2,2.93,4.89,4.42,8,4.42c4.68,0,8.94-4.18,8.94-8.77
			c0-2.88-1.53-4.96-2.7-6.3l-27.41-35.29c19.19-4.81,30.11-17.72,30.11-35.83v-0.34c0-9.76-3.48-18.62-9.8-24.94
			C956.2,319.14,943.66,314.69,928.96,314.69z M956.18,353c0,13.55-11.15,22.3-28.41,22.3h-34.35v-43.92h34.52
			c17.94,0,28.24,7.76,28.24,21.28V353z"/>
		<path class="st2" d="M1016.66,406.42h62.41l11.8,26.04c1.73,3.95,4.86,6.21,8.6,6.21c4.74,0,8.6-3.86,8.6-8.6
			c0-1.23-0.34-2.66-1.05-4.29l-48.18-105.18c-1.95-4.76-5.52-7.28-10.31-7.28h-0.67c-4.83,0-8.25,2.36-10.45,7.2l-48.2,105.4
			c-0.71,1.43-1.06,2.9-1.06,4.49c0,4.55,3.71,8.26,8.26,8.26c3.82,0,6.89-2.16,8.41-5.85L1016.66,406.42z M1047.87,336.51
			l24.01,53.39h-48.02L1047.87,336.51z"/>
		<path class="st2" d="M538.84,492.46c5.17,0,10.03,1.98,13.7,5.58l0.49,0.48l2.68-2.69l-0.5-0.49c-4.39-4.33-10.21-6.71-16.37-6.71
			c-12.83,0-23.27,10.44-23.27,23.28c0,12.83,10.44,23.28,23.27,23.28c6.16,0,11.98-2.38,16.37-6.71l0.5-0.49l-2.68-2.69l-0.49,0.48
			c-3.67,3.6-8.53,5.58-13.7,5.58c-10.72,0-19.45-8.72-19.45-19.45C519.39,501.18,528.11,492.46,538.84,492.46z"/>
		<path class="st2" d="M595.5,488.63c-12.84,0-23.28,10.44-23.28,23.27s10.44,23.28,23.28,23.28c12.83,0,23.28-10.44,23.28-23.28
			C618.78,499.07,608.33,488.63,595.5,488.63z M595.5,531.35c-10.72,0-19.45-8.72-19.45-19.45c0-10.72,8.72-19.44,19.45-19.44
			c10.73,0,19.45,8.72,19.45,19.44C614.95,522.62,606.23,531.35,595.5,531.35z"/>
		<path class="st2" d="M663.62,518c6.06-1.89,10.13-7.44,10.13-13.82c0-8.03-6.54-14.57-14.57-14.57h-19.69v44.6h3.83V518.7h15.31
			l10.53,15.51h4.6l-10.86-15.98L663.62,518z M643.32,514.85v-21.42h15.86c5.92,0,10.74,4.82,10.74,10.74
			c0,5.89-4.82,10.68-10.74,10.68H643.32z"/>
		<path class="st2" d="M716.62,489.6h-19.68v44.6h3.83v-15.51h15.86c8.04,0,14.57-6.51,14.57-14.51
			C731.19,496.14,724.66,489.6,716.62,489.6z M716.62,514.85h-15.86v-21.42h15.86c5.92,0,10.74,4.82,10.74,10.74
			C727.37,510.06,722.55,514.85,716.62,514.85z"/>
		<path class="st2" d="M771.49,488.63c-12.83,0-23.28,10.44-23.28,23.27s10.44,23.28,23.28,23.28c12.84,0,23.28-10.44,23.28-23.28
			C794.76,499.07,784.32,488.63,771.49,488.63z M771.49,531.35c-10.72,0-19.45-8.72-19.45-19.45c0-10.72,8.72-19.44,19.45-19.44
			s19.45,8.72,19.45,19.44C790.94,522.62,782.21,531.35,771.49,531.35z"/>
		<path class="st2" d="M839.81,518c6.06-1.89,10.13-7.44,10.13-13.82c0-8.03-6.54-14.57-14.57-14.57h-19.68v44.6h3.83V518.7h15.31
			l10.53,15.51h4.61l-10.86-15.98L839.81,518z M819.51,514.85v-21.42h15.86c5.92,0,10.74,4.82,10.74,10.74
			c0,5.89-4.82,10.68-10.74,10.68H819.51z"/>
		<path class="st2" d="M885.71,489.6l-19.35,44.6h4.2l5.72-13.27h22.88l5.78,13.27h4.2l-19.35-44.6H885.71z M877.98,517.1l9.77-22.5
			l9.77,22.5H877.98z"/>
		<polygon class="st2" points="921.16,493.42 938.2,493.42 938.2,534.2 942.03,534.2 942.03,493.42 959.07,493.42 959.07,489.6 
			921.16,489.6 		"/>
		<rect x="977.85" y="489.6" class="st2" width="3.83" height="44.6"/>
		<path class="st2" d="M1025.86,488.63c-12.83,0-23.27,10.44-23.27,23.27s10.44,23.28,23.27,23.28c12.83,0,23.28-10.44,23.28-23.28
			C1049.13,499.07,1038.69,488.63,1025.86,488.63z M1025.86,531.35c-10.72,0-19.45-8.72-19.45-19.45c0-10.72,8.72-19.44,19.45-19.44
			c10.73,0,19.45,8.72,19.45,19.44C1045.31,522.62,1036.58,531.35,1025.86,531.35z"/>
		<polygon class="st2" points="1104.25,527.44 1075.1,489.6 1071.63,489.6 1071.63,534.2 1075.45,534.2 1075.45,496.36 
			1104.6,534.2 1108.08,534.2 1108.08,489.6 1104.25,489.6 		"/>
	</g>
</g>
</svg>
